<svg width="165" height="76" viewBox="0 0 165 76" fill="none" xmlns="http://www.w3.org/2000/svg">
<path d="M62.1566 37.7098V59H57.6592V49.8109H49.2304V59H44.7168V37.7098H49.2304V46.0576H57.6592V37.7098H62.1566ZM76.6213 47.1901C76.0928 46.392 75.2408 45.9929 74.0652 45.9929C72.8896 45.9929 72.0375 46.392 71.5091 47.1901C70.9806 47.9774 70.7163 49.1962 70.7163 50.8463C70.7163 52.4857 70.986 53.7098 71.5252 54.5187C72.0645 55.3276 72.9166 55.7321 74.0814 55.7321C75.2462 55.7321 76.0928 55.3276 76.6213 54.5187C77.1606 53.7098 77.4302 52.4857 77.4302 50.8463C77.4302 49.1962 77.1606 47.9774 76.6213 47.1901ZM74.1137 42.4176C76.4757 42.3852 78.3847 43.1456 79.8407 44.6987C81.2967 46.241 82.0032 48.2848 81.96 50.8301C81.96 53.4833 81.259 55.5595 79.8569 57.0586C78.4656 58.547 76.5242 59.2912 74.0328 59.2912C71.6708 59.3128 69.7618 58.547 68.3058 56.9939C66.8606 55.4408 66.1542 53.3862 66.1865 50.8301C66.1865 48.1769 66.8768 46.1116 68.2573 44.634C69.6486 43.1564 71.6007 42.4176 74.1137 42.4176ZM90.5602 53.9039C90.5602 54.5187 90.7328 54.9825 91.0779 55.2952C91.423 55.5972 91.9461 55.7482 92.6472 55.7482C93.3482 55.7482 94.2326 55.5811 95.3004 55.2467V58.547C94.2003 59.0431 92.8036 59.2912 91.1103 59.2912C89.4278 59.2912 88.1767 58.849 87.357 57.9646C86.5373 57.0802 86.1275 55.7267 86.1275 53.9039V46.0576H83.992V44.181L86.4348 42.6926L87.7291 39.2629H90.5602V42.725H95.1224V46.0576H90.5602V53.9039ZM108.416 49.0182C108.405 47.9289 108.125 47.0822 107.575 46.4783C107.025 45.8743 106.275 45.5723 105.326 45.5723C104.388 45.5723 103.649 45.8743 103.109 46.4783C102.57 47.0715 102.263 47.9181 102.187 49.0182H108.416ZM111.668 58.1426C110.136 58.9083 108.227 59.2912 105.941 59.2912C103.32 59.2912 101.271 58.574 99.793 57.1395C98.3262 55.6943 97.5928 53.6235 97.5928 50.9272C97.5928 48.2309 98.2722 46.1385 99.6312 44.6502C101.012 43.1618 102.872 42.4176 105.213 42.4176C107.564 42.4176 109.381 43.0755 110.665 44.3913C111.948 45.7071 112.59 47.5136 112.59 49.8109V51.9626H102.09C102.133 53.2353 102.505 54.2275 103.207 54.9393C103.918 55.6404 104.9 55.9909 106.151 55.9909C108.017 55.9909 109.856 55.5649 111.668 54.7128V58.1426ZM120.637 36.3509V59H116.205V36.3509H120.637Z" fill="#262626"/>
<path d="M78.5509 25.0394V36H75.7299V25.0394H72.1202V22.6936H82.1607V25.0394H78.5509ZM87.0268 30.8938V36H84.2058V22.6936H88.0784C89.8782 22.6936 91.2129 23.0239 92.0824 23.6845C92.9588 24.3384 93.3969 25.336 93.3969 26.6775C93.3969 27.4594 93.1812 28.1571 92.7498 28.7705C92.3251 29.3771 91.7151 29.8557 90.9197 30.2063C92.9217 33.1925 94.226 35.1237 94.8327 36H91.6982L88.5233 30.8938H87.0268ZM87.0268 25.0091V28.5986H87.9368C88.8266 28.5986 89.4839 28.4503 89.9085 28.1537C90.3332 27.8571 90.5455 27.3953 90.5455 26.7685C90.5455 26.1416 90.3298 25.6933 89.8984 25.4237C89.4738 25.1473 88.7997 25.0091 87.8762 25.0091H87.0268ZM102.769 29.2963L107.259 36H104.043L100.949 30.9646L97.8553 36H94.832L99.2405 29.1345L95.1151 22.6936H98.2294L101.091 27.4863L103.902 22.6936H106.945L102.769 29.2963Z" fill="#262626"/>
<path d="M52.9062 25.9844L40.3438 38.5469H31.9062L52.9062 17.4531L74.0469 38.5469H65.5156L52.9062 25.9844Z" fill="#1DAEF1"/>
</svg>
